<region> lovel=1 hivel=5 amp_velcurve_5=1 sample=../samples/kicks/kd20full/snare_on/cls/kd20full_cls_a001.wav
<region> lovel=6 hivel=10 amp_velcurve_10=1 sample=../samples/kicks/kd20full/snare_on/cls/kd20full_cls_a002.wav
<region> lovel=11 hivel=15 amp_velcurve_15=1 sample=../samples/kicks/kd20full/snare_on/cls/kd20full_cls_a003.wav
<region> lovel=16 hivel=20 amp_velcurve_20=1 sample=../samples/kicks/kd20full/snare_on/cls/kd20full_cls_a004.wav
<region> lovel=21 hivel=25 amp_velcurve_25=1 sample=../samples/kicks/kd20full/snare_on/cls/kd20full_cls_a005.wav
<region> lovel=26 hivel=30 amp_velcurve_30=1 sample=../samples/kicks/kd20full/snare_on/cls/kd20full_cls_a006.wav
<region> lovel=31 hivel=35 amp_velcurve_35=1 sample=../samples/kicks/kd20full/snare_on/cls/kd20full_cls_a007.wav
<region> lovel=36 hivel=40 amp_velcurve_40=1 sample=../samples/kicks/kd20full/snare_on/cls/kd20full_cls_a008.wav
<region> lovel=41 hivel=45 amp_velcurve_45=1 sample=../samples/kicks/kd20full/snare_on/cls/kd20full_cls_a009.wav
<region> lovel=46 hivel=50 amp_velcurve_50=1 sample=../samples/kicks/kd20full/snare_on/cls/kd20full_cls_a010.wav
<region> lovel=51 hivel=55 amp_velcurve_55=1 sample=../samples/kicks/kd20full/snare_on/cls/kd20full_cls_a011.wav
<region> lovel=56 hivel=60 amp_velcurve_60=1 sample=../samples/kicks/kd20full/snare_on/cls/kd20full_cls_a012.wav
<region> lovel=61 hivel=65 amp_velcurve_65=1 sample=../samples/kicks/kd20full/snare_on/cls/kd20full_cls_a013.wav
<region> lovel=66 hivel=70 amp_velcurve_70=1 sample=../samples/kicks/kd20full/snare_on/cls/kd20full_cls_a014.wav
<region> lovel=71 hivel=75 amp_velcurve_75=1 sample=../samples/kicks/kd20full/snare_on/cls/kd20full_cls_a015.wav
<region> lovel=76 hivel=80 amp_velcurve_80=1 sample=../samples/kicks/kd20full/snare_on/cls/kd20full_cls_a016.wav
<region> lovel=81 hivel=85 amp_velcurve_85=1 sample=../samples/kicks/kd20full/snare_on/cls/kd20full_cls_a017.wav
<region> lovel=86 hivel=91 amp_velcurve_91=1 sample=../samples/kicks/kd20full/snare_on/cls/kd20full_cls_a018.wav
<region> lovel=92 hivel=97 amp_velcurve_97=1 sample=../samples/kicks/kd20full/snare_on/cls/kd20full_cls_a019.wav
<region> lovel=98 hivel=103 amp_velcurve_103=1 sample=../samples/kicks/kd20full/snare_on/cls/kd20full_cls_a020.wav
<region> lovel=104 hivel=109 amp_velcurve_109=1 sample=../samples/kicks/kd20full/snare_on/cls/kd20full_cls_a021.wav
<region> lovel=110 hivel=115 amp_velcurve_115=1 sample=../samples/kicks/kd20full/snare_on/cls/kd20full_cls_a022.wav
<region> lovel=116 hivel=121 amp_velcurve_121=1 sample=../samples/kicks/kd20full/snare_on/cls/kd20full_cls_a023.wav
<region> lovel=122 hivel=127 amp_velcurve_127=1 sample=../samples/kicks/kd20full/snare_on/cls/kd20full_cls_a024.wav
